<svg version="1" xmlns="http://www.w3.org/2000/svg" width="666.667" height="666.667" viewBox="0 0 500.000000 500.000000"><path d="M0 250v250h500V0H0v250zM283 40.4c15.1 2.5 19.1 3.5 34.2 8.6 45 15 81.5 42.8 109 83 42.1 61.4 47.5 144.4 13.9 212.1-2.8 5.6-4.8 10.6-4.4 11.2.3.6.2.8-.3.4-.5-.3-2.9 2.7-5.4 6.6-16.2 26.2-42.5 52.4-68.1 67.9-33.9 20.6-65.5 30.1-104.4 31.5-73.2 2.6-140.9-31.4-182.4-91.6-2.6-3.9-5-6.8-5.3-6.6-.3.3-.5-.1-.5-.7 0-.7-2.1-5-4.7-9.6-11.4-20.1-19.9-44.7-24.1-69.2-2.5-15-3-41.9-1.1-58.5 5.6-48 26.2-90.7 60.3-124.9C134.5 65.7 177.2 45 227 39c10.3-1.2 45.7-.4 56 1.4z"/><path d="M236.5 76.6c-35.1 3.6-65.8 15.4-92 35.3-15.2 11.5-40.8 40.1-38.9 43.3.4.7.4 1-.1.6-1.2-1.2-4 3.1-10.5 16C77.9 206 72.4 243.1 79.1 280c6.7 37.5 23.5 69 50.8 95.2 25.8 24.8 58.4 41 94.1 46.6 25.9 4.2 58.7 1.1 82.8-7.8 16.8-6.1 33.2-14.4 43.2-21.9 25.2-18.7 42.6-39.2 55.3-64.6 8.4-16.9 12.8-30.7 16.3-50.5 2.1-11.6 2.3-38.8.5-51-5.7-38.5-24.4-75.1-51.7-101-10.1-9.5-13.4-12.1-14.7-11.3-.7.3-.9.3-.5-.2 1.8-1.9-19.2-15.2-35.2-22.3-11.2-5-27.7-9.9-40.3-12.1-11-1.9-35.3-3.3-43.2-2.5zm31 90.4c25.6 3.7 41.3 15.8 48 37 1.5 4.7 1.9 11.6 2.5 49.5.7 42.2.9 44.5 3.4 56.4 1.4 6.9 2.6 12.9 2.6 13.3 0 .4-8.9.8-19.9.8h-19.8l-1.2-6.3c-.6-3.4-1.4-7.5-1.7-9l-.6-2.8-4.4 4c-10.2 9.5-23.1 15.3-38.1 17.1-25.6 3.2-48.1-7.1-57.2-26-2.4-5.1-2.6-6.5-2.6-18.5.1-12 .3-13.5 2.9-19.7 6.1-14.7 20.6-25.9 40.1-30.9 8.2-2.1 11.2-2.3 32.8-2.4h23.8l-.7-6.5c-1.5-15.1-7.7-21.2-23.2-23-12-1.3-28.3 1.1-39.7 6-4.9 2.1-15.7 8.4-21.4 12.5-1.9 1.4-3.7 2.5-4 2.5-.3 0-.4-8.1-.1-17.9l.5-18 3.5-2.3c11.6-7.9 24.3-13 38-15.3 9.2-1.6 27.1-1.8 36.5-.5z"/><path d="M234.3 259c-9.3 1.9-14.5 6.8-16.3 15.6-1.9 9.2.4 16.4 6.4 20 3.8 2.3 18.4 2.6 26.1.5 6.1-1.7 15.3-7 22.3-12.8l5.2-4.5V258l-19.7.1c-10.9.1-21.7.5-24 .9z"/></svg>