<svg width="138" height="16" viewBox="0 0 138 16" fill="none" xmlns="http://www.w3.org/2000/svg">
    <path d="M1.05895 9.04174C0.474108 8.4569 0.474108 7.50868 1.05895 6.92384L6.9239 1.05889C7.50874 0.474048 8.45696 0.474048 9.0418 1.05889L14.9067 6.92384C15.4916 7.50868 15.4916 8.4569 14.9067 9.04174L9.0418 14.9067C8.45696 15.4915 7.50874 15.4915 6.9239 14.9067L1.05895 9.04174Z" fill="url(#paint0_linear)"/>
    <mask id="mask0" mask-type="alpha" maskUnits="userSpaceOnUse" x="0" y="0" width="16" height="17">
        <path d="M1.05895 9.07641C0.474108 8.49156 0.474108 7.54335 1.05895 6.95851L6.9239 1.09356C7.50874 0.508716 8.45696 0.508715 9.0418 1.09356L14.9067 6.95851C15.4916 7.54335 15.4916 8.49156 14.9067 9.07641L9.0418 14.9414C8.45696 15.5262 7.50874 15.5262 6.9239 14.9414L1.05895 9.07641Z" fill="url(#paint1_linear)"/>
    </mask>
    <g mask="url(#mask0)">
        <path d="M3.45584 7.23462C2.36145 7.23462 1.49747 7.46502 0.633476 7.98341C-0.0769143 8.3482 -1.52074 9.07779 -1.61289 9.07779C-1.70505 9.07779 3.91663 15.5289 6.739 18.7545L17.4525 9.59619L15.2637 7.58021C14.4573 7.86821 12.8977 8.93557 11.0013 9.07779C8.69737 9.25059 6.04781 7.23462 3.45584 7.23462Z" fill="url(#paint2_linear)"/>
    </g>
    <path d="M96.3619 5.06559V12.3262H98.9608V5.06559H96.3619ZM96.1995 2.04439C96.1995 2.85654 96.8492 3.50626 97.6613 3.50626C98.4735 3.50626 99.1232 2.85654 99.1232 2.04439C99.1232 1.23224 98.4735 0.58252 97.6613 0.58252C96.8492 0.58252 96.1995 1.23224 96.1995 2.04439Z" fill="black"/>
    <path d="M105.077 7.19342V5.06559H103.599V2.67787H101V5.06559H100.172V7.19342H101V12.3262H103.599V7.19342H105.077Z" fill="black"/>
    <path d="M106.054 12.3262H108.653V8.7365C108.653 8.2817 108.653 7.58325 109.107 7.14469C109.319 6.93353 109.546 6.8848 109.822 6.8848C110.082 6.8848 110.374 6.93353 110.602 7.17717C110.894 7.48579 110.943 8.03805 110.943 8.7365V12.3262H113.542V8.60656C113.542 8.24921 113.574 7.64822 114.013 7.2259C114.24 7.01474 114.484 6.93353 114.776 6.93353C115.117 6.93353 115.312 7.04723 115.458 7.17717C115.751 7.4533 115.832 7.97308 115.832 8.7365V12.3262H118.431V7.59949C118.431 7.09596 118.398 6.23508 117.749 5.6016C117.148 5.01686 116.271 4.93564 115.735 4.93564C115.247 4.93564 114.744 5.00061 114.224 5.29299C113.899 5.47166 113.526 5.78028 113.233 6.30005C113.054 5.94271 112.762 5.53663 112.226 5.2605C111.836 5.04934 111.349 4.93564 110.829 4.93564C110.115 4.93564 109.27 5.19553 108.653 5.94271V5.06559H106.054V12.3262Z" fill="black"/>
    <path d="M127.934 8.89893C127.934 8.08678 127.804 6.81983 126.781 5.84525C125.92 5.0331 124.831 4.85443 123.987 4.85443C122.557 4.85443 121.615 5.32547 121.014 5.91022C120.381 6.52745 119.926 7.50203 119.926 8.72026C119.926 10.1009 120.527 10.9943 120.998 11.4653C121.891 12.3587 123.045 12.5698 124.003 12.5698C125.579 12.5698 126.423 12.0826 126.959 11.5628C127.495 11.043 127.723 10.4745 127.836 10.0684H125.351C125.237 10.2958 125.059 10.4583 124.896 10.5557C124.572 10.7344 124.117 10.7506 124.052 10.7506C123.467 10.7506 123.142 10.5557 122.98 10.3933C122.671 10.0847 122.525 9.56489 122.525 9.17506H127.934V8.89893ZM122.606 7.68071C122.655 7.35585 122.817 7.09596 122.996 6.90104C123.272 6.62491 123.613 6.51121 124.052 6.51121C124.312 6.51121 124.783 6.55994 125.124 6.90104C125.319 7.09596 125.481 7.40457 125.546 7.68071H122.606Z" fill="black"/>
    <path d="M133.512 7.03099C133.918 7.03099 134.373 7.2259 134.665 7.50203C134.99 7.82689 135.169 8.29794 135.169 8.68777C135.169 9.11009 134.99 9.53241 134.665 9.84102C134.356 10.1496 133.934 10.3283 133.512 10.3283C133.073 10.3283 132.651 10.1496 132.342 9.84102C132.05 9.54865 131.839 9.12633 131.839 8.68777C131.839 8.26545 132.017 7.81065 132.342 7.50203C132.635 7.2259 133.089 7.03099 133.512 7.03099ZM137.865 8.68777C137.865 7.38833 137.28 6.5437 136.744 6.02392C136.143 5.45542 135.104 4.82194 133.496 4.82194C131.92 4.82194 130.864 5.43917 130.263 6.02392C129.727 6.5437 129.142 7.38833 129.142 8.68777C129.142 9.66235 129.467 10.5882 130.263 11.3679C131.27 12.3587 132.44 12.5698 133.496 12.5698C134.665 12.5698 135.786 12.31 136.744 11.3679C137.54 10.5882 137.865 9.66235 137.865 8.68777Z" fill="black"/>
    <path d="M24.224 12C24.144 12 24.076 11.972 24.02 11.916C23.964 11.86 23.936 11.792 23.936 11.712V3.9C23.936 3.812 23.96 3.74 24.008 3.684C24.064 3.628 24.136 3.6 24.224 3.6H27.44C28.408 3.6 29.168 3.828 29.72 4.284C30.272 4.74 30.548 5.404 30.548 6.276C30.548 7.14 30.272 7.796 29.72 8.244C29.168 8.684 28.408 8.904 27.44 8.904H25.676V11.712C25.676 11.8 25.648 11.872 25.592 11.928C25.536 11.976 25.464 12 25.376 12H24.224ZM27.38 7.56C27.844 7.56 28.196 7.452 28.436 7.236C28.684 7.012 28.808 6.688 28.808 6.264C28.808 5.848 28.688 5.524 28.448 5.292C28.216 5.06 27.86 4.944 27.38 4.944H25.652V7.56H27.38ZM34.5038 12.12C33.5598 12.12 32.8318 11.88 32.3198 11.4C31.8078 10.92 31.5318 10.256 31.4918 9.408L31.4798 8.88L31.4918 8.352C31.5318 7.512 31.8118 6.852 32.3318 6.372C32.8518 5.884 33.5758 5.64 34.5038 5.64C35.4238 5.64 36.1438 5.884 36.6638 6.372C37.1838 6.852 37.4638 7.512 37.5038 8.352C37.5118 8.448 37.5158 8.624 37.5158 8.88C37.5158 9.136 37.5118 9.312 37.5038 9.408C37.4638 10.256 37.1878 10.92 36.6758 11.4C36.1638 11.88 35.4398 12.12 34.5038 12.12ZM34.5038 10.908C34.9278 10.908 35.2518 10.776 35.4758 10.512C35.7078 10.248 35.8318 9.86 35.8478 9.348C35.8558 9.268 35.8598 9.112 35.8598 8.88C35.8598 8.648 35.8558 8.492 35.8478 8.412C35.8318 7.9 35.7078 7.512 35.4758 7.248C35.2438 6.976 34.9198 6.84 34.5038 6.84C34.0798 6.84 33.7518 6.976 33.5198 7.248C33.2878 7.512 33.1638 7.9 33.1478 8.412L33.1358 8.88L33.1478 9.348C33.1638 9.86 33.2878 10.248 33.5198 10.512C33.7518 10.776 34.0798 10.908 34.5038 10.908ZM40.4733 12C40.2733 12 40.1413 11.9 40.0773 11.7L38.3613 6.132C38.3533 6.108 38.3493 6.072 38.3493 6.024C38.3493 5.952 38.3733 5.892 38.4213 5.844C38.4693 5.788 38.5293 5.76 38.6013 5.76H39.5133C39.5933 5.76 39.6613 5.784 39.7173 5.832C39.7813 5.88 39.8213 5.932 39.8373 5.988L41.0013 9.936L42.2373 6.024C42.2613 5.952 42.3013 5.892 42.3573 5.844C42.4213 5.788 42.5013 5.76 42.5973 5.76H43.2093C43.3053 5.76 43.3813 5.788 43.4373 5.844C43.5013 5.892 43.5413 5.952 43.5573 6.024L44.8053 9.936L45.9693 5.988C45.9853 5.932 46.0213 5.88 46.0773 5.832C46.1333 5.784 46.2053 5.76 46.2933 5.76H47.1933C47.2653 5.76 47.3253 5.788 47.3733 5.844C47.4293 5.892 47.4573 5.952 47.4573 6.024L47.4333 6.132L45.7173 11.7C45.6853 11.796 45.6373 11.872 45.5733 11.928C45.5173 11.976 45.4373 12 45.3333 12H44.5413C44.3333 12 44.2013 11.9 44.1453 11.7L42.9093 7.932L41.6613 11.7C41.5973 11.9 41.4613 12 41.2533 12H40.4733ZM51.249 12.12C50.353 12.12 49.641 11.864 49.113 11.352C48.593 10.84 48.317 10.112 48.285 9.168L48.273 8.868C48.273 7.868 48.533 7.08 49.053 6.504C49.581 5.928 50.309 5.64 51.237 5.64C52.189 5.64 52.921 5.928 53.433 6.504C53.953 7.08 54.213 7.848 54.213 8.808V9.06C54.213 9.14 54.185 9.208 54.129 9.264C54.073 9.32 54.001 9.348 53.913 9.348H49.929V9.444C49.945 9.892 50.065 10.264 50.289 10.56C50.521 10.848 50.837 10.992 51.237 10.992C51.693 10.992 52.065 10.808 52.353 10.44C52.425 10.352 52.481 10.3 52.521 10.284C52.561 10.26 52.629 10.248 52.725 10.248H53.781C53.853 10.248 53.913 10.268 53.961 10.308C54.017 10.348 54.045 10.404 54.045 10.476C54.045 10.668 53.929 10.896 53.697 11.16C53.473 11.416 53.149 11.64 52.725 11.832C52.301 12.024 51.809 12.12 51.249 12.12ZM52.557 8.328V8.304C52.557 7.832 52.437 7.456 52.197 7.176C51.965 6.888 51.645 6.744 51.237 6.744C50.829 6.744 50.509 6.888 50.277 7.176C50.045 7.456 49.929 7.832 49.929 8.304V8.328H52.557ZM55.8745 12C55.7945 12 55.7265 11.972 55.6705 11.916C55.6145 11.86 55.5865 11.792 55.5865 11.712V6.06C55.5865 5.972 55.6145 5.9 55.6705 5.844C55.7265 5.788 55.7945 5.76 55.8745 5.76H56.8585C56.9465 5.76 57.0185 5.788 57.0745 5.844C57.1305 5.9 57.1585 5.972 57.1585 6.06V6.552C57.5585 6.024 58.1345 5.76 58.8865 5.76H59.3905C59.4785 5.76 59.5465 5.788 59.5945 5.844C59.6505 5.892 59.6785 5.96 59.6785 6.048V6.924C59.6785 7.004 59.6505 7.072 59.5945 7.128C59.5465 7.184 59.4785 7.212 59.3905 7.212H58.4425C58.0665 7.212 57.7705 7.32 57.5545 7.536C57.3385 7.752 57.2305 8.048 57.2305 8.424V11.712C57.2305 11.792 57.2025 11.86 57.1465 11.916C57.0905 11.972 57.0225 12 56.9425 12H55.8745ZM63.3318 12.12C62.4358 12.12 61.7238 11.864 61.1958 11.352C60.6758 10.84 60.3998 10.112 60.3678 9.168L60.3558 8.868C60.3558 7.868 60.6158 7.08 61.1358 6.504C61.6638 5.928 62.3918 5.64 63.3198 5.64C64.2718 5.64 65.0038 5.928 65.5158 6.504C66.0358 7.08 66.2958 7.848 66.2958 8.808V9.06C66.2958 9.14 66.2678 9.208 66.2118 9.264C66.1558 9.32 66.0838 9.348 65.9958 9.348H62.0118V9.444C62.0278 9.892 62.1478 10.264 62.3718 10.56C62.6038 10.848 62.9198 10.992 63.3198 10.992C63.7758 10.992 64.1478 10.808 64.4358 10.44C64.5078 10.352 64.5638 10.3 64.6038 10.284C64.6438 10.26 64.7118 10.248 64.8078 10.248H65.8638C65.9358 10.248 65.9958 10.268 66.0438 10.308C66.0998 10.348 66.1278 10.404 66.1278 10.476C66.1278 10.668 66.0118 10.896 65.7798 11.16C65.5558 11.416 65.2318 11.64 64.8078 11.832C64.3838 12.024 63.8918 12.12 63.3318 12.12ZM64.6398 8.328V8.304C64.6398 7.832 64.5198 7.456 64.2798 7.176C64.0478 6.888 63.7278 6.744 63.3198 6.744C62.9118 6.744 62.5918 6.888 62.3598 7.176C62.1278 7.456 62.0118 7.832 62.0118 8.304V8.328H64.6398ZM69.9853 12.12C69.1773 12.12 68.5573 11.864 68.1253 11.352C67.6933 10.832 67.4573 10.14 67.4173 9.276L67.4053 8.88L67.4173 8.484C67.4493 7.636 67.6813 6.952 68.1133 6.432C68.5533 5.904 69.1773 5.64 69.9853 5.64C70.7533 5.64 71.3653 5.904 71.8213 6.432V3.768C71.8213 3.68 71.8493 3.612 71.9053 3.564C71.9613 3.508 72.0293 3.48 72.1093 3.48H73.1533C73.2413 3.48 73.3093 3.508 73.3573 3.564C73.4133 3.612 73.4413 3.68 73.4413 3.768V11.712C73.4413 11.792 73.4133 11.86 73.3573 11.916C73.3093 11.972 73.2413 12 73.1533 12H72.1813C72.1013 12 72.0333 11.972 71.9773 11.916C71.9213 11.86 71.8933 11.792 71.8933 11.712V11.268C71.4533 11.836 70.8173 12.12 69.9853 12.12ZM70.4413 10.824C70.8973 10.824 71.2333 10.68 71.4493 10.392C71.6733 10.096 71.7973 9.732 71.8213 9.3C71.8293 9.204 71.8333 9.052 71.8333 8.844C71.8333 8.628 71.8293 8.472 71.8213 8.376C71.8053 7.976 71.6813 7.636 71.4493 7.356C71.2173 7.076 70.8813 6.936 70.4413 6.936C69.5853 6.936 69.1293 7.464 69.0733 8.52L69.0613 8.88L69.0733 9.24C69.1293 10.296 69.5853 10.824 70.4413 10.824ZM81.4389 12.12C80.6069 12.12 79.9709 11.836 79.5309 11.268V11.712C79.5309 11.792 79.5029 11.86 79.4469 11.916C79.3909 11.972 79.3189 12 79.2309 12H78.2709C78.1909 12 78.1229 11.972 78.0669 11.916C78.0109 11.86 77.9829 11.792 77.9829 11.712V3.768C77.9829 3.68 78.0109 3.612 78.0669 3.564C78.1229 3.508 78.1909 3.48 78.2709 3.48H79.3149C79.4029 3.48 79.4709 3.508 79.5189 3.564C79.5749 3.612 79.6029 3.68 79.6029 3.768V6.432C80.0509 5.904 80.6629 5.64 81.4389 5.64C82.2469 5.64 82.8669 5.904 83.2989 6.432C83.7389 6.952 83.9709 7.636 83.9949 8.484C84.0029 8.58 84.0069 8.712 84.0069 8.88C84.0069 9.04 84.0029 9.172 83.9949 9.276C83.9629 10.14 83.7309 10.832 83.2989 11.352C82.8669 11.864 82.2469 12.12 81.4389 12.12ZM80.9829 10.824C81.8389 10.824 82.2949 10.296 82.3509 9.24C82.3589 9.16 82.3629 9.04 82.3629 8.88C82.3629 8.72 82.3589 8.6 82.3509 8.52C82.2949 7.464 81.8389 6.936 80.9829 6.936C80.5429 6.936 80.2069 7.076 79.9749 7.356C79.7429 7.636 79.6189 7.976 79.6029 8.376C79.5949 8.472 79.5909 8.628 79.5909 8.844C79.5909 9.052 79.5949 9.204 79.6029 9.3C79.6189 9.724 79.7389 10.084 79.9629 10.38C80.1869 10.676 80.5269 10.824 80.9829 10.824ZM86.3122 14.28C86.2482 14.28 86.1882 14.256 86.1322 14.208C86.0842 14.16 86.0602 14.104 86.0602 14.04C86.0602 13.984 86.0762 13.92 86.1082 13.848L87.0562 11.628L84.7522 6.192C84.7202 6.12 84.7042 6.064 84.7042 6.024C84.7122 5.952 84.7402 5.892 84.7882 5.844C84.8362 5.788 84.8962 5.76 84.9682 5.76H85.9642C86.1082 5.76 86.2122 5.836 86.2762 5.988L87.8722 9.9L89.4922 5.988C89.5722 5.836 89.6842 5.76 89.8282 5.76H90.8002C90.8722 5.76 90.9322 5.784 90.9802 5.832C91.0282 5.88 91.0522 5.936 91.0522 6C91.0522 6.056 91.0362 6.12 91.0042 6.192L87.6082 14.052C87.5442 14.204 87.4322 14.28 87.2722 14.28H86.3122Z" fill="black"/>
    <defs>
        <linearGradient id="paint0_linear" x1="7.96038" y1="13.385" x2="7.96038" y2="3.26182" gradientUnits="userSpaceOnUse">
            <stop stop-color="#009EFD"/>
            <stop offset="1" stop-color="#2AF598"/>
        </linearGradient>
        <linearGradient id="paint1_linear" x1="7.96038" y1="13.4197" x2="7.96038" y2="3.29649" gradientUnits="userSpaceOnUse">
            <stop stop-color="#009EFD"/>
            <stop offset="1" stop-color="#2AF598"/>
        </linearGradient>
        <linearGradient id="paint2_linear" x1="15.4941" y1="14.3193" x2="-2.47688" y2="9.07779" gradientUnits="userSpaceOnUse">
            <stop stop-color="#00C1FF"/>
            <stop offset="1" stop-color="#0024FF"/>
        </linearGradient>
    </defs>
</svg>
