<svg width="13" height="17" viewBox="0 0 13 17" fill="none" xmlns="http://www.w3.org/2000/svg">
    <path d="M0 6.092c0 1.243.493 3.055 1.85 3.463.047.01.114.028.161.028.313 0 .493-.873.493-1.12 0-.293-.749-.92-.749-2.143 0-2.543 1.935-4.345 4.44-4.345 2.153 0 3.747 1.224 3.747 3.472 0 1.68-.674 4.829-2.856 4.829-.787 0-1.46-.57-1.46-1.385 0-1.196.834-2.353.834-3.586 0-.75-.427-1.357-1.223-1.357-1.082 0-1.746 1.214-1.746 2.173 0 .53.066 1.119.304 1.603-.437 1.878-1.328 4.677-1.328 6.612 0 .598.085 1.186.142 1.783l.085.095.133-.047c1.594-2.182 1.537-2.609 2.258-5.464.389.74 1.394 1.138 2.191 1.138 3.358 0 4.867-3.273 4.867-6.223 0-3.14-2.713-5.19-5.692-5.19C3.206.429 0 2.593 0 6.093z" fill="#333"/>
</svg>