<svg width="16" height="17" viewBox="0 0 16 17" fill="none" xmlns="http://www.w3.org/2000/svg">
    <path d="M15.368 4.3a6.144 6.144 0 0 1-1.764.473 3.056 3.056 0 0 0 1.347-1.688 6.032 6.032 0 0 1-1.945.74 3.057 3.057 0 0 0-2.239-.968 3.063 3.063 0 0 0-3.064 3.064c0 .237.029.475.076.702a8.71 8.71 0 0 1-6.318-3.206 3.041 3.041 0 0 0-.417 1.546c0 1.063.54 2.002 1.366 2.552a3.086 3.086 0 0 1-1.385-.389v.038a3.064 3.064 0 0 0 2.457 3.007 3.24 3.24 0 0 1-.807.105c-.199 0-.389-.02-.578-.048a3.07 3.07 0 0 0 2.865 2.125 6.136 6.136 0 0 1-3.805 1.31c-.256 0-.493-.01-.74-.039A8.659 8.659 0 0 0 5.123 15c5.635 0 8.718-4.667 8.718-8.718 0-.133 0-.266-.01-.399A6.588 6.588 0 0 0 15.369 4.3z" fill="#333"/>
</svg>